<svg width="15" height="12" viewBox="0 0 15 12" fill="none" xmlns="http://www.w3.org/2000/svg">
<path d="M12.75 2.98999L10.5 5.98999H12C12 8.47999 9.98 10.49 7.5 10.49C6.34 10.49 5.3 10.04 4.5 9.32001L3.58997 10.53C4.63997 11.43 6 11.98 7.5 11.98C10.81 11.98 13.5 9.28998 13.5 5.97998H15L12.75 2.97998V2.98999Z" fill="black"/>
<path d="M3 5.98999C3 3.50999 5.02 1.48999 7.5 1.48999C8.66 1.48999 9.7 1.94003 10.5 2.66003L11.41 1.45001C10.36 0.550012 9 0 7.5 0C4.19 0 1.5 2.69 1.5 6H0L2.25 9L4.5 6H3V5.98999Z" fill="black"/>
</svg>
